<?xml version="1.0" encoding="UTF-8" standalone="no"?>
<!DOCTYPE svg PUBLIC "-//W3C//DTD SVG 1.1//EN" "http://www.w3.org/Graphics/SVG/1.1/DTD/svg11.dtd">
<svg width="100%" height="100%" viewBox="0 0 2541 737" version="1.1" xmlns="http://www.w3.org/2000/svg" xmlns:xlink="http://www.w3.org/1999/xlink" xml:space="preserve" xmlns:serif="http://www.serif.com/" style="fill-rule:evenodd;clip-rule:evenodd;stroke-linejoin:round;stroke-miterlimit:2;">
    <rect id="Artboard1" x="0" y="0" width="2540.01" height="736.362" style="fill:none;"/>
    <clipPath id="_clip1">
        <rect x="0" y="0" width="2540.01" height="736.362"/>
    </clipPath>
    <g clip-path="url(#_clip1)">
        <g>
            <g id="Waves">
                <path d="M109.825,1192.5L74.199,468.84C74.199,468.84 157.824,509.366 236.733,509.88C315.643,510.393 351.686,468.095 419.578,468.84C487.471,469.585 502.576,510.473 566.589,511.079C630.602,511.684 640.535,468.677 713.037,468.84C785.54,469.004 788.693,514.217 849.742,515.471C910.792,516.726 936.633,484.651 1001.32,483C1066.01,481.348 1093.94,512.26 1142.21,511.936C1190.48,511.611 1208.98,469.093 1301.55,468.84C1394.13,468.587 1406.91,528.736 1474.24,529.191C1541.57,529.646 1540.78,469.514 1612.26,468.84C1683.74,468.166 1666.81,509.263 1739.4,511.597C1811.99,513.931 1812.77,468.367 1855.52,468.84C1898.28,469.314 1903.36,511.82 1964.56,513.907C2025.76,515.994 2017.71,468.124 2049.87,468.84C2082.04,469.556 2028.58,1053.92 2028.58,1053.92L107.672,1053.92L91.17,468.84" style="fill:rgb(96,29,250);"/>
                <ellipse cx="1103.25" cy="1087.5" rx="3112.25" ry="875.769" style="fill:rgb(96,29,250);"/>
            </g>
            <g id="Astronaut">
                <rect x="928.402" y="366.386" width="72.657" height="134.703" style="fill:rgb(121,23,251);"/>
                <rect x="1049.76" y="145.605" width="42.688" height="220.781" style="fill-opacity:0.12;"/>
                <rect x="930.325" y="466.457" width="70.734" height="34.631" style="fill:rgb(121,65,251);"/>
                <rect x="1021.09" y="466.457" width="69.221" height="34.631" style="fill:rgb(121,65,251);"/>
                <path d="M958.857,477.438C982.38,477.489 1001.46,488.13 1001.43,501.188C1001.4,514.245 982.279,524.805 958.756,524.755C935.233,524.704 916.157,514.063 916.185,501.005C916.213,487.948 935.334,477.388 958.857,477.438Z" style="fill:rgb(121,65,251);"/>
                <ellipse cx="975.921" cy="507.708" rx="18.164" ry="0.122" style="fill:rgb(121,65,251);"/>
                <path d="M949.003,162.664C949.605,155.2 944.035,148.652 936.571,148.05L909.525,145.869C902.061,145.267 895.513,150.838 894.911,158.301L881.734,321.685C881.133,329.148 886.703,335.697 894.167,336.299L921.213,338.48C928.677,339.082 935.225,333.511 935.827,326.047L949.003,162.664Z" style="fill:rgb(121,23,251);"/>
                <path d="M1096.01,145.824L1049.76,158.216L1077.71,262.555L1123.96,250.163L1096.01,145.824Z" style="fill:rgb(121,23,251);"/>
                <path d="M1108.02,212.867L1065.3,234.493L1114.09,330.866L1156.81,309.239L1108.02,212.867Z" style="fill:rgb(121,23,251);"/>
                <rect x="1021.09" y="366.386" width="69.221" height="134.703" style="fill:rgb(121,23,251);"/>
                <path d="M1062.36,477.435C1085.1,477.484 1103.55,488.124 1103.52,501.182C1103.49,514.239 1085,524.8 1062.25,524.752C1039.51,524.703 1021.06,514.063 1021.09,501.005C1021.12,487.948 1039.61,477.387 1062.36,477.435Z" style="fill:rgb(121,65,251);"/>
                <rect x="1021.09" y="466.457" width="69.221" height="34.631" style="fill:rgb(121,65,251);"/>
                <path d="M1096.06,153.882C1096.06,149.435 1092.44,145.824 1088,145.824L929.486,145.824C925.039,145.824 921.428,149.435 921.428,153.882L921.428,358.328C921.428,362.775 925.039,366.386 929.486,366.386L1088,366.386C1092.44,366.386 1096.06,362.775 1096.06,358.328L1096.06,153.882Z" style="fill:rgb(105,4,246);"/>
                <clipPath id="_clip2">
                    <path d="M1096.06,153.882C1096.06,149.435 1092.44,145.824 1088,145.824L929.486,145.824C925.039,145.824 921.428,149.435 921.428,153.882L921.428,358.328C921.428,362.775 925.039,366.386 929.486,366.386L1088,366.386C1092.44,366.386 1096.06,362.775 1096.06,358.328L1096.06,153.882Z"/>
                </clipPath>
                <g clip-path="url(#_clip2)">
                    <rect x="1050.57" y="145.824" width="45.49" height="220.562" style="fill-opacity:0.25;"/>
                </g>
                <circle cx="1001.23" cy="79.362" r="79.362" style="fill:rgb(121,65,251);"/>
                <ellipse cx="1013.77" cy="83.094" rx="64.261" ry="62.73" style="fill:url(#_Radial3);"/>
                <ellipse cx="907.057" cy="350.021" rx="20.478" ry="25.875" style="fill:rgb(121,65,251);"/>
                <path d="M1136,305.787C1146.95,303.004 1158.7,311.982 1162.22,325.823C1165.73,339.665 1159.69,353.161 1148.74,355.944C1137.79,358.727 1126.04,349.749 1122.52,335.908C1119.01,322.066 1125.04,308.57 1136,305.787Z" style="fill:rgb(121,65,251);"/>
            </g>
            <g id="About-crater" serif:id="About crater">
                <g id="Rocket">
                    <path d="M1824.4,37.944L1899.19,195.987L1899.19,560.162L1868.87,560.162L1888.41,622.559L1760.4,622.559L1779.93,560.162L1749.62,560.162L1749.62,195.987L1824.4,37.944Z" style="fill:rgb(121,23,251);"/>
                    <rect x="1749.62" y="510.093" width="149.569" height="47.662" style="fill:rgb(121,65,251);"/>
                    <ellipse cx="1824.4" cy="249.547" rx="31.155" ry="36.677" style="fill:rgb(25,2,80);"/>
                </g>
                <path d="M980.509,615.045C1085.62,608.9 1185.95,577.188 1185.95,577.188L1505.28,591.159C1505.28,591.159 1565.78,630.472 1699.97,645.492C1754.67,651.614 1475.25,676.251 1323.49,671.527C1171.73,666.804 901.892,619.642 980.509,615.045Z" style="fill:rgb(121,65,251);"/>
                <path d="M1341.46,567.706C1432.19,569.911 1505.5,580.492 1505.05,591.32C1504.61,602.148 1430.58,609.148 1339.84,606.943C1249.1,604.738 1175.79,594.156 1176.24,583.328C1176.68,572.501 1250.72,565.5 1341.46,567.706Z" style="fill:rgb(25,2,80);"/>
                <text x="1297.54px" y="587.451px" style="font-family:'AmaticSC-Bold', 'Amatic SC';font-weight:700;font-size:48px;fill:white;">A<tspan x="1314.58px 1328.5px 1346.02px 1363.58px " y="587.451px 587.451px 587.451px 587.451px ">bout</tspan></text>
            </g>
            <g id="Contact-Crater" serif:id="Contact Crater">
                <path d="M1287.51,372.852C1368.22,360.048 1392.46,347.473 1392.46,347.473L1583.81,355.136C1583.81,355.136 1615.61,379.83 1676.97,391.585C1701.31,396.249 1609.15,411.448 1488.13,407.153C1381.57,403.371 1255.77,377.887 1287.51,372.852Z" style="fill:rgb(123,71,245);fill-opacity:0.75;"/>
                <path d="M1488.64,341.672C1541.45,343.843 1584.09,350.037 1583.8,355.494C1583.52,360.952 1540.42,363.62 1487.62,361.449C1434.82,359.278 1392.18,353.085 1392.46,347.627C1392.74,342.169 1435.84,339.501 1488.64,341.672Z" style="fill:rgb(25,2,80);"/>
                <g transform="matrix(0.998164,0.0605628,-0.0605628,0.998164,-46.3203,-19.2367)">
                    <text x="1512.95px" y="273.362px" style="font-family:'AmaticSC-Bold', 'Amatic SC';font-weight:700;font-size:36px;fill:white;">C<tspan x="1525.27px 1538.41px 1555.83px 1565.23px 1576.17px 1586.39px " y="273.362px 273.362px 273.362px 273.362px 273.362px 273.362px ">ontact</tspan></text>
                </g>
            </g>
            <g id="Projects-crater" serif:id="Projects crater">
                <path d="M464.103,360.683C525.811,350.117 541.006,338.051 541.006,338.051L728.606,338.051C728.606,338.051 751.126,350.603 799.918,356.719C837.743,361.461 757.511,391.171 630.706,392.595C503.919,394.018 433.914,365.852 464.103,360.683Z" style="fill:rgb(121,65,251);fill-opacity:0.84;"/>
                <ellipse cx="634.806" cy="338.051" rx="93.8" ry="11.101" style="fill:rgb(25,2,80);"/>
                <g transform="matrix(0.999612,-0.027845,0.027845,0.999612,18.3911,-18.2783)">
                    <text x="571.63px" y="377.614px" style="font-family:'AmaticSC-Bold', 'Amatic SC';font-weight:700;font-size:36px;fill:white;">P<tspan x="582.178px 592.978px 606.118px 615.442px 625.846px 636.07px 645.466px " y="377.614px 377.614px 377.614px 377.614px 377.614px 377.614px 377.614px ">rojects</tspan></text>
                </g>
            </g>
            <path d="M431.339,232.062C539.164,228.524 623.868,217.41 625.651,217.418C627.433,217.426 656.062,218.465 718.195,217.233C780.329,216.001 812.393,211.729 812.393,211.729C812.393,211.729 860.746,221.505 932.146,221.888C1003.55,222.272 323.514,235.6 431.339,232.062Z" style="fill:rgb(96,29,250);"/>
            <path d="M1219.68,212.324C1327.72,213.862 1451.51,192.201 1453.27,192.475C1461.21,193.711 1463.24,197.753 1525.37,200.202C1587.5,202.651 1590.43,197.322 1590.43,197.322C1590.43,197.322 1715.28,225.622 1786.41,231.923C1857.54,238.224 1111.65,210.785 1219.68,212.324Z" style="fill:rgb(96,29,250);"/>
        </g>
    </g>
    <defs>
        <radialGradient id="_Radial3" cx="0" cy="0" r="1" gradientUnits="userSpaceOnUse" gradientTransform="matrix(244.104,38.1978,-32.6262,238.288,1095.7,83.0941)"><stop offset="0" style="stop-color:rgb(25,2,80);stop-opacity:0"/><stop offset="0.16" style="stop-color:rgb(25,2,80);stop-opacity:0.47"/><stop offset="0.35" style="stop-color:rgb(25,2,80);stop-opacity:0.86"/><stop offset="1" style="stop-color:rgb(25,2,80);stop-opacity:1"/></radialGradient>
    </defs>
</svg>
